<svg width="800" height="800" viewBox="0 0 800 800" fill="none" xmlns="http://www.w3.org/2000/svg">
<g clip-path="url(#clip0_52_230)">
<path d="M665.645 276.896C662.326 276.004 658.79 276.471 655.813 278.19L608.501 305.506C608.34 305.589 608.176 305.661 608.019 305.753C607.86 305.844 607.713 305.951 607.56 306.05L395.681 428.378L473.424 138.241C475.276 131.329 471.175 124.224 464.261 122.371C375.35 98.5411 282.48 110.773 202.763 156.798C38.2034 251.807 -18.3808 462.983 76.6282 627.546C122.653 707.264 196.966 764.285 285.879 788.109C315.568 796.065 345.695 800.001 375.63 800.001C435.343 800.001 494.279 784.34 547.377 753.682C711.938 658.673 768.524 447.495 673.513 282.932C671.796 279.955 668.966 277.784 665.645 276.896ZM362.559 451.885C361.199 456.949 363.025 462.329 367.184 465.518C371.342 468.707 377.011 469.08 381.551 466.459L609.493 334.857C673.231 458.842 628.881 612.844 506.861 683.292C465.479 707.184 420.259 718.535 375.594 718.531C284.491 718.524 195.754 671.28 147.022 586.872C111.841 525.936 102.495 454.948 120.706 386.984C138.917 319.018 182.506 262.212 243.44 227.032C300.479 194.1 366.615 183.808 430.675 197.672L362.559 451.885ZM534.419 731.238C460.698 773.801 374.813 785.11 292.585 763.077C210.359 741.045 141.635 688.311 99.0705 614.589C11.2053 462.401 63.5361 267.105 215.722 179.24C264.831 150.887 319.324 136.404 374.552 136.404C398.01 136.404 421.614 139.022 444.973 144.296L437.385 172.613C366.629 156.974 293.499 168.205 230.478 204.592C163.547 243.232 115.672 305.625 95.6687 380.277C75.6659 454.929 85.9317 532.902 124.574 599.831C178.106 692.551 275.558 744.445 375.634 744.443C424.684 744.441 474.369 731.973 519.815 705.736C654.211 628.142 702.812 458.269 631.947 321.893L657.323 307.242C736.282 457.655 682.846 645.547 534.419 731.238Z" fill="black"/>
<path d="M767.737 161.042C721.702 81.3074 647.372 24.2723 558.44 0.44273C555.122 -0.44874 551.583 0.017727 548.608 1.73675C545.632 3.45404 543.462 6.28566 542.57 9.60449L456.713 330.033C455.356 335.097 457.182 340.477 461.341 343.668C463.654 345.442 466.436 346.345 469.231 346.345C471.458 346.345 473.695 345.772 475.708 344.609L762.997 178.744C765.973 177.026 768.143 174.195 769.035 170.876C769.921 167.555 769.456 164.019 767.737 161.042ZM489.84 306.523L549.108 85.3311C606.367 104.18 654.73 141.768 687.137 192.613L489.84 306.523ZM709.593 179.651C673.701 122.842 619.755 80.9602 555.823 60.2732L564.183 29.0752C636.791 51.6557 697.992 98.6151 738.595 162.906L709.593 179.651Z" fill="black"/>
<path d="M291.281 469.059C291.281 446.672 273.068 428.459 250.681 428.459C228.294 428.459 210.081 446.672 210.081 469.059C210.081 491.446 228.294 509.659 250.681 509.659C273.068 509.659 291.281 491.446 291.281 469.059ZM235.996 469.059C235.996 460.961 242.583 454.374 250.681 454.374C258.779 454.374 265.366 460.961 265.366 469.059C265.366 477.156 258.779 483.744 250.681 483.744C242.583 483.744 235.996 477.156 235.996 469.059Z" fill="black"/>
<path d="M305.966 329.983C328.353 329.983 346.566 311.77 346.566 289.383C346.566 266.996 328.353 248.783 305.966 248.783C283.579 248.783 265.366 266.996 265.366 289.383C265.366 311.77 283.579 329.983 305.966 329.983ZM305.966 274.698C314.064 274.698 320.651 281.286 320.651 289.383C320.651 297.481 314.064 304.068 305.966 304.068C297.869 304.068 291.281 297.481 291.281 289.383C291.281 281.286 297.869 274.698 305.966 274.698Z" fill="black"/>
<path d="M499.464 551.123C521.851 551.123 540.064 532.91 540.064 510.523C540.064 488.136 521.851 469.923 499.464 469.923C477.077 469.923 458.864 488.136 458.864 510.523C458.864 532.91 477.077 551.123 499.464 551.123ZM499.464 495.838C507.561 495.838 514.149 502.425 514.149 510.523C514.149 518.62 507.561 525.208 499.464 525.208C491.366 525.208 484.779 518.62 484.779 510.523C484.779 502.425 491.366 495.838 499.464 495.838Z" fill="black"/>
<path d="M320.651 621.093C320.651 643.48 338.864 661.693 361.251 661.693C383.638 661.693 401.851 643.48 401.851 621.093C401.851 598.706 383.638 580.493 361.251 580.493C338.864 580.493 320.651 598.706 320.651 621.093ZM375.936 621.093C375.936 629.191 369.348 635.778 361.251 635.778C353.153 635.778 346.566 629.191 346.566 621.093C346.566 612.996 353.153 606.408 361.251 606.408C369.348 606.408 375.936 612.997 375.936 621.093Z" fill="black"/>
<path d="M478.732 634.051C489.687 634.051 498.6 625.138 498.6 614.183C498.6 603.227 489.687 594.314 478.732 594.314C467.777 594.314 458.864 603.227 458.864 614.183C458.864 625.138 467.775 634.051 478.732 634.051Z" fill="black"/>
<path d="M395.804 537.302C406.759 537.302 415.672 528.389 415.672 517.433C415.672 506.478 406.759 497.565 395.804 497.565C384.849 497.565 375.936 506.478 375.936 517.433C375.936 528.389 384.847 537.302 395.804 537.302Z" fill="black"/>
<path d="M561.659 193.498C550.704 193.498 541.791 202.411 541.791 213.366C541.791 224.321 550.704 233.234 561.659 233.234C572.614 233.234 581.527 224.321 581.527 213.366C581.527 202.411 572.614 193.498 561.659 193.498Z" fill="black"/>
<path d="M243.77 594.314C232.815 594.314 223.902 603.227 223.902 614.183C223.902 625.138 232.815 634.051 243.77 634.051C254.725 634.051 263.638 625.138 263.638 614.183C263.638 603.227 254.725 594.314 243.77 594.314Z" fill="black"/>
<path d="M293.009 379.221C293.009 390.176 301.922 399.089 312.877 399.089C323.832 399.089 332.745 390.176 332.745 379.221C332.745 368.266 323.832 359.353 312.877 359.353C301.922 359.353 293.009 368.266 293.009 379.221Z" fill="black"/>
<path d="M300.172 526.576L272.529 540.398C266.128 543.599 263.533 551.38 266.735 557.783C269.005 562.323 273.58 564.948 278.334 564.948C280.281 564.948 282.258 564.505 284.118 563.576L311.761 549.755C318.162 546.553 320.757 538.772 317.555 532.369C314.354 525.972 306.574 523.377 300.172 526.576Z" fill="black"/>
<path d="M584.623 447.213C586.893 451.753 591.468 454.377 596.223 454.377C598.17 454.377 600.146 453.935 602.007 453.005C608.408 449.804 611.003 442.023 607.801 435.622L593.98 407.979C590.781 401.58 582.999 398.985 576.597 402.185C570.196 405.386 567.601 413.167 570.802 419.57L584.623 447.213Z" fill="black"/>
<path d="M171.85 429.124C165.064 426.863 157.724 430.529 155.459 437.318L141.638 478.782C139.375 485.572 143.045 492.911 149.834 495.172C151.194 495.625 152.574 495.841 153.934 495.841C159.359 495.841 164.414 492.408 166.225 486.978L180.046 445.514C182.307 438.726 178.639 431.387 171.85 429.124Z" fill="black"/>
<path d="M236.849 371.45C241.602 371.45 246.179 368.824 248.449 364.286C251.65 357.885 249.055 350.102 242.654 346.9L215.012 333.079C208.614 329.876 200.829 332.473 197.628 338.874C194.427 345.275 197.022 353.058 203.423 356.259L231.065 370.08C232.924 371.01 234.901 371.45 236.849 371.45Z" fill="black"/>
<path d="M362.115 234.098V261.741C362.115 268.898 367.914 274.698 375.072 274.698C382.228 274.698 388.03 268.898 388.03 261.741V234.098C388.03 226.94 382.228 221.141 375.072 221.141C367.916 221.141 362.115 226.94 362.115 234.098Z" fill="black"/>
<path d="M591.553 128.187C586.493 123.129 578.288 123.129 573.229 128.187C568.169 133.25 568.169 141.452 573.229 146.513L600.872 174.155C603.401 176.685 606.718 177.949 610.034 177.949C613.349 177.949 616.666 176.685 619.195 174.155C624.256 169.093 624.256 160.89 619.195 155.83L591.553 128.187Z" fill="black"/>
<path d="M531.764 602.614C534.293 605.144 537.61 606.408 540.926 606.408C544.241 606.408 547.558 605.144 550.087 602.614L563.909 588.793C568.969 583.731 568.969 575.528 563.909 570.468C558.848 565.409 550.644 565.409 545.585 570.468L531.764 584.289C526.704 589.349 526.704 597.552 531.764 602.614Z" fill="black"/>
<path d="M499.463 454.374H513.285C520.44 454.374 526.242 448.574 526.242 441.416C526.242 434.259 520.44 428.459 513.285 428.459H499.463C492.307 428.459 486.506 434.259 486.506 441.416C486.506 448.574 492.306 454.374 499.463 454.374Z" fill="black"/>
</g>
<defs>
<clipPath id="clip0_52_230">
<rect width="800" height="800" fill="white"/>
</clipPath>
</defs>
</svg>
